<?xml version="1.0" encoding="UTF-8"?>
<svg width="81px" height="80px" viewBox="0 0 81 80" version="1.1" xmlns="http://www.w3.org/2000/svg" xmlns:xlink="http://www.w3.org/1999/xlink">
    <!-- Generator: Sketch 63.1 (92452) - https://sketch.com -->
    <title>logotipo-responsive-uno-negativo</title>
    <desc>Created with Sketch.</desc>
    <g id="Page-1" stroke="none" stroke-width="1" fill="none" fill-rule="evenodd">
        <g id="logotipo-responsive-uno-negativo" fill="#FFFFFF" fill-rule="nonzero">
            <path d="M40.72,6.07 L40.72,6.07 L36.35,11.79 C35.78,11.26 35.17,10.79 34.59,10.26 C34.59,10.36 34.59,13.71 34.59,13.88 C36.6851895,14.32678 38.7390939,14.9489725 40.73,15.74 L40.73,15.74 C42.7213854,14.950345 44.7751734,14.3281877 46.87,13.88 C46.87,13.71 46.87,10.36 46.87,10.26 C46.29,10.74 45.68,11.26 45.11,11.79 L40.74,6.07 L40.72,6.07 Z" id="Path"></path>
            <path d="M31.4,13.35 L31.4,7.92 C28.8871832,6.29891534 26.2045578,4.95760268 23.4,3.92 C16.5175517,7.18867469 10.7204498,12.3678819 6.7,18.84 C14.0480182,14.2021395 22.7791963,12.261485 31.4,13.35 L31.4,13.35 Z" id="Path"></path>
            <path d="M35.85,7.2 L40.72,0.83 C40.72,0.83 45.56,7.15 45.59,7.2 C48.1268714,5.21506631 50.8893474,3.53676988 53.82,2.2 C49.6067957,0.740389858 45.1788723,-0.00323087513 40.72,-2.64958746e-05 L40.72,-2.64958746e-05 C36.2618022,-0.00513125317 31.8341113,0.735070496 27.62,2.19 C30.5511432,3.52990915 33.3136399,5.21157485 35.85,7.2 L35.85,7.2 Z" id="Path"></path>
            <path d="M17.65,26.7 C20.249944,22.255337 24.0666426,18.6468219 28.65,16.3 C19.3563421,15.7816187 10.2484231,19.0460411 3.4,25.35 C-0.141001114,34.3361147 -0.329135292,44.296577 2.87,53.41 C3.83231695,42.8277417 9.19511678,33.1362408 17.65,26.7 L17.65,26.7 Z" id="Path"></path>
            <path d="M35.39,45.9200055 C36.7490514,45.9195064 38.0676749,45.4576356 39.13,44.61 L39.13,37.55 L34.67,35.55 C32.8312623,37.8982017 31.4135988,40.5474391 30.48,43.38 C31.605912,44.9751143 33.4375501,45.922642 35.39,45.9200055 L35.39,45.9200055 Z" id="Path"></path>
            <path d="M23.77,26.58 C21.1662224,27.728717 19.1888492,29.9505257 18.35,32.67 C16.745282,37.5988227 16.8050136,42.9184527 18.52,47.81 C21.1872618,48.8247886 23.6855583,50.2374555 25.93,52 C25.9007311,45.0861338 28.2604478,38.3743648 32.61,33 L33.61,27.72 C30.7618424,25.6280197 27.0210211,25.1946319 23.77,26.58 Z" id="Path"></path>
            <path d="M18.38,57 C16.38,52.27 12.43,42.75 14.83,33.62 L14.67,33.81 C8.18448677,41.0701732 5.08741384,50.7430735 6.15,60.42 C12.5576776,71.3371998 23.7548595,78.5769808 36.34,79.94 C28.5792323,73.8653122 22.414899,65.991715 18.38,57 L18.38,57 Z" id="Path"></path>
            <path d="M50,13.35 C58.6053047,12.2650632 67.3205345,14.1982468 74.66,18.82 C70.6503034,12.3536499 64.8677242,7.1750136 58,3.9 C55.1963604,4.93972007 52.5139598,6.28092037 50,7.9 L50,13.35 Z" id="Path"></path>
            <path d="M78,25.35 C71.1435234,19.0641789 62.0365456,15.8181274 52.75,16.35 C57.3333574,18.6968219 61.150056,22.305337 63.75,26.75 C72.1974283,33.1886341 77.5498958,42.8811363 78.5,53.46 C81.7211839,44.335086 81.5436581,34.3545859 78,25.35 Z" id="Path"></path>
            <path d="M45.32,31.53 L44.38,26.53 C47.6165208,23.2531378 52.3342809,21.9133395 56.81,23 C54.901132,21.2002058 52.7040075,19.7332027 50.31,18.66 C47.08,17.19 44.44,17.52 40.72,19.24 C37,17.52 34.36,17.19 31.13,18.66 C28.7359925,19.7332027 26.538868,21.2002058 24.63,23 C29.1092533,21.9184012 33.8275731,23.2659503 37.06,26.55 L36.13,31.55" id="Path"></path>
            <path d="M61.71,51.82 C59.2885496,53.0406672 57.0665441,54.6220338 55.12,56.51 C54.6220459,59.7630629 53.5665651,62.9058247 52,65.8 C44.8783295,69.1061182 36.6616705,69.1061182 29.54,65.8 C27.9560311,62.9090798 26.8835833,59.7661648 26.37,56.51 C24.4252556,54.6198735 22.2029019,53.0382591 19.78,51.82 C23.8350262,62.871312 31.1600968,72.4252969 40.78,79.21 L40.78,79.21 C50.373937,72.4148933 57.6737545,62.8620027 61.71,51.82 L61.71,51.82 Z" id="Path"></path>
            <path d="M40.72,65.1 L40.72,65.1 C43.7149277,65.114384 46.6838348,64.5437016 49.46,63.42 C51.4262892,59.7313197 52.41115,55.5990367 52.32,51.42 C52.3091965,50.4735482 52.2424132,49.5285642 52.12,48.59 C45.5564472,54.2031983 35.8835528,54.2031983 29.32,48.59 C29.1975868,49.5285642 29.1308035,50.4735482 29.12,51.42 C29.02885,55.5990367 30.0137108,59.7313197 31.98,63.42 C34.7561652,64.5437016 37.7250723,65.114384 40.72,65.1 L40.72,65.1 Z" id="Path"></path>
            <path d="M51,43.35 C50.0664012,40.5174391 48.6487377,37.8682017 46.81,35.52 L42.35,37.52 L42.35,44.58 C43.6420617,45.6126597 45.3031076,46.0661363 46.9406632,45.8332816 C48.5782188,45.6004269 50.0470141,44.7018977 51,43.35 L51,43.35 Z" id="Path"></path>
            <path d="M62.92,47.81 C64.6349864,42.9184527 64.694718,37.5988227 63.09,32.67 C62.2511508,29.9505257 60.2737776,27.728717 57.67,26.58 C54.4217796,25.1984649 50.6858218,25.6317296 47.84,27.72 L48.84,33 C53.1895522,38.3743648 55.5492689,45.0861338 55.52,52 C57.7613753,50.2383297 60.2562418,48.8256958 62.92,47.81 Z" id="Path"></path>
            <path d="M66.62,33.61 C69.02,42.74 65.1,52.26 63.06,56.99 C59.0151273,65.9896679 52.8366549,73.8672201 45.06,79.94 C57.6470537,78.5747671 68.844619,71.3310291 75.25,60.41 C76.3125862,50.7330735 73.2155132,41.0601732 66.73,33.8 L66.62,33.61 Z" id="Path"></path>
        </g>
    </g>
</svg>