<svg xmlns="http://www.w3.org/2000/svg" viewBox="0 0 289.24 50.46"><defs><style>.cls-1{fill:#fff;}</style></defs><title>Recurso 3</title><g id="Capa_2" data-name="Capa 2"><g id="Layer_1" data-name="Layer 1"><path class="cls-1" d="M131.43,3.83h0l-2.76,3.61c-.36-.33-.74-.66-1.11-1V8.76a25.29,25.29,0,0,1,3.87,1.17h0a25.29,25.29,0,0,1,3.87-1.17V6.47c-.37.31-.75.64-1.11,1l-2.76-3.61Z"/><path class="cls-1" d="M125.55,8.43V5a25.83,25.83,0,0,0-5-2.54A25.14,25.14,0,0,0,110,11.88,23.65,23.65,0,0,1,125.55,8.43Z"/><path class="cls-1" d="M128.36,4.54l3.07-4,3.07,4a26.32,26.32,0,0,1,5.2-3.16A25.58,25.58,0,0,0,131.43,0h0a25.58,25.58,0,0,0-8.27,1.38A26.32,26.32,0,0,1,128.36,4.54Z"/><path class="cls-1" d="M116.87,16.86a17,17,0,0,1,7-6.57A21.7,21.7,0,0,0,107.9,16a24.6,24.6,0,0,0-1.77,9.28,24.36,24.36,0,0,0,1.43,8.43A23.89,23.89,0,0,1,116.87,16.86Z"/><path class="cls-1" d="M128.07,29a3.79,3.79,0,0,0,2.36-.82V23.7l-2.82-1.28A16.33,16.33,0,0,0,125,27.37,3.76,3.76,0,0,0,128.07,29Z"/><path class="cls-1" d="M120.73,16.77a6.23,6.23,0,0,0-3.42,3.85,14.9,14.9,0,0,0,.11,9.56,17.46,17.46,0,0,1,4.67,2.63,19,19,0,0,1,4.22-12c0-.06.6-3.17.63-3.34A6.39,6.39,0,0,0,120.73,16.77Z"/><path class="cls-1" d="M117.33,36c-1.29-3-3.76-9-2.24-14.75l-.1.11a21.67,21.67,0,0,0-5.38,16.8,25.28,25.28,0,0,0,19,12.33A38.26,38.26,0,0,1,117.33,36Z"/><path class="cls-1" d="M137.31,8.43a23.65,23.65,0,0,1,15.57,3.45,25.08,25.08,0,0,0-10.54-9.42,25.83,25.83,0,0,0-5,2.54Z"/><path class="cls-1" d="M155,16A21.72,21.72,0,0,0,139,10.29a17,17,0,0,1,7,6.57,23.82,23.82,0,0,1,9.31,16.85,24.36,24.36,0,0,0,1.43-8.43A24.77,24.77,0,0,0,155,16Z"/><path class="cls-1" d="M134.33,19.9l-.59-3.16a8.28,8.28,0,0,1,7.85-2.25,14.73,14.73,0,0,0-4.11-2.73c-2-.94-3.7-.72-6,.36-2.35-1.08-4-1.3-6.05-.36a14.73,14.73,0,0,0-4.11,2.73,8.28,8.28,0,0,1,7.85,2.25l-.59,3.16"/><path class="cls-1" d="M144.68,32.71a16.78,16.78,0,0,0-4.16,3,17.9,17.9,0,0,1-2,5.86,16.79,16.79,0,0,1-14.18,0,18.14,18.14,0,0,1-2-5.86,16.6,16.6,0,0,0-4.16-3A36.61,36.61,0,0,0,131.43,50v0A36.61,36.61,0,0,0,144.68,32.71Z"/><path class="cls-1" d="M131.43,41.09h0A14.55,14.55,0,0,0,137,40a15.45,15.45,0,0,0,1.8-7.58,17.34,17.34,0,0,0-.12-1.78,11.11,11.11,0,0,1-14.4,0,17.34,17.34,0,0,0-.12,1.78A15.34,15.34,0,0,0,125.92,40a14.5,14.5,0,0,0,5.51,1.06Z"/><path class="cls-1" d="M137.89,27.37a16.33,16.33,0,0,0-2.64-4.95l-2.81,1.28v4.46a3.78,3.78,0,0,0,5.45-.79Z"/><path class="cls-1" d="M145.45,30.18a15,15,0,0,0,.1-9.56,6.23,6.23,0,0,0-3.42-3.85,6.37,6.37,0,0,0-6.2.72l.62,3.34a18.93,18.93,0,0,1,4.22,12A17.36,17.36,0,0,1,145.45,30.18Z"/><path class="cls-1" d="M147.78,21.22c1.51,5.76-1,11.77-2.25,14.75A38.26,38.26,0,0,1,134.2,50.46a25.28,25.28,0,0,0,19.05-12.33,21.67,21.67,0,0,0-5.38-16.8Z"/><path class="cls-1" d="M17.26,32.85a7.92,7.92,0,0,0-2.81-4.58A7.9,7.9,0,0,0,9.54,14.2H0v3.66H2.48v15H0v3.66H6.72V30.19H8.88a4.38,4.38,0,0,1,3.35,1.57c1.27,1.52,1.2,3.78,1.27,4.76h6.23V32.85Zm-10.55-15H8.88a4.33,4.33,0,1,1,0,8.66H6.72C6.72,23.59,6.71,20.25,6.71,17.86Z"/><polygon class="cls-1" points="35.53 32.85 30.91 32.85 30.91 27.28 37.17 27.28 37.17 23.49 30.91 23.49 30.91 17.86 35.47 17.86 35.47 19.72 39.43 19.72 39.43 14.2 24.2 14.2 24.2 17.86 26.72 17.86 26.72 32.84 24.2 32.84 24.2 36.51 39.49 36.51 39.49 30.58 35.53 30.58 35.53 32.85"/><polygon class="cls-1" points="82.41 32.85 77.77 32.85 77.77 17.86 80.41 17.86 80.41 14.2 71.05 14.2 71.05 17.86 73.57 17.86 73.57 32.85 71.05 32.85 71.05 36.51 86.37 36.51 86.37 30.58 82.41 30.58 82.41 32.85"/><path class="cls-1" d="M64.15,32.85,57.34,14.2H53.2L46.38,32.85H44.13v3.66h5.39L51,32.28h8.48L61,36.51h5.39V32.85ZM52.33,28.68l2.94-8.42h0l2.94,8.42Z"/><polygon class="cls-1" points="258.59 32.85 251.69 32.85 262.31 16.98 262.37 16.89 262.37 14.2 246.61 14.2 246.61 19.54 250.57 19.54 250.57 17.87 256.73 17.87 246.05 33.64 246.05 36.51 262.55 36.51 262.55 30.77 258.59 30.77 258.59 32.85"/><polygon class="cls-1" points="211.33 32.85 206.68 32.85 206.68 17.86 209.33 17.86 209.33 14.2 199.97 14.2 199.97 17.86 202.49 17.86 202.49 32.85 199.97 32.85 199.97 36.51 215.29 36.51 215.29 30.58 211.33 30.58 211.33 32.85"/><polygon class="cls-1" points="258.59 32.85 251.7 32.85 262.31 16.98 262.37 16.89 262.37 14.2 246.61 14.2 246.61 19.54 250.57 19.54 250.57 17.86 256.73 17.86 246.05 33.64 246.05 36.51 262.55 36.51 262.55 30.77 258.59 30.77 258.59 32.85"/><path class="cls-1" d="M188.21,14.2h-9.52v3.66h2.48v15h-2.48v3.66h9.73V32.85h-3V30.12h2.91a7.83,7.83,0,0,0,6-2.86,8.05,8.05,0,0,0,1.18-2,8.6,8.6,0,0,0,.62-3.2A7.91,7.91,0,0,0,188.21,14.2Zm-.63,12.31H185.4c0-2.91,0-6.29,0-8.65h2.17a5.14,5.14,0,0,1,.87.09,5,5,0,0,1,.81.25,3.67,3.67,0,0,1,.73.39,4.48,4.48,0,0,1,.64.51,4.27,4.27,0,0,1,1.28,3A4.37,4.37,0,0,1,187.58,26.51Z"/><path class="cls-1" d="M239.3,32.85,232.49,14.2h-4.14l-6.82,18.65h-2.25v3.66h5.39l1.51-4.23h8.48l1.51,4.23h5.39V32.85Zm-11.82-4.17,2.94-8.42h0l2.94,8.42Z"/><path class="cls-1" d="M287,32.85,280.17,14.2H276l-6.81,18.65H267v3.66h5.39l1.51-4.23h8.48l1.51,4.23h5.39V32.85Zm-11.82-4.17,2.94-8.42h0L281,28.68Z"/></g></g></svg>