<svg xmlns="http://www.w3.org/2000/svg" viewBox="0 0 184.62 144.79"><defs><style>.cls-1{fill:#7300e1;}</style></defs><title>Recurso 4</title><g id="Capa_2" data-name="Capa 2"><g id="Layer_1" data-name="Layer 1"><path class="cls-1" d="M92.32,1.1l6.41,8.38a55,55,0,0,1,10.84-6.6A52.86,52.86,0,0,0,92.33,0h0A52.86,52.86,0,0,0,75.08,2.88a55,55,0,0,1,10.84,6.6Z"/><path class="cls-1" d="M60.38,45.17A42.35,42.35,0,0,0,45,76.18C56.1,97.09,74.6,104.94,90.4,105.56,81.3,98.63,60.59,78.62,60.38,45.17Z"/><path class="cls-1" d="M80.05,17.59V10.43A54.21,54.21,0,0,0,69.57,5.14a52.18,52.18,0,0,0-22,19.66A49.36,49.36,0,0,1,80.05,17.59Z"/><path class="cls-1" d="M92.35,20.74a51.38,51.38,0,0,1,8.08-2.45V12.37c-.77.63-1.58,1.32-2.32,2L92.32,6.81l-5.78,7.58c-.74-.7-1.55-1.39-2.32-2v5.92a51.38,51.38,0,0,1,8.08,2.45h0Z"/><path class="cls-1" d="M141.44,33.39A45.13,45.13,0,0,0,102.7,22.08a24.82,24.82,0,0,1,11.17,8.72A17.57,17.57,0,0,0,97.2,35.28l1.17,6.26H86.28l1.17-6.26A17.58,17.58,0,0,0,70.78,30.8,24.82,24.82,0,0,1,82,22.08,45.12,45.12,0,0,0,43.21,33.39a51.55,51.55,0,0,0-3.69,19.37,65.12,65.12,0,0,0,2.37,15.51A44.87,44.87,0,0,1,61,39.83c11.36-7.59,19.64-4.48,21.81-2.89-.06.35-1.18,6.4-1.2,6.54a39.44,39.44,0,0,0-8.8,25,39.16,39.16,0,0,0-5.64-3.66,71.78,71.78,0,0,0,25.11,37.09h0a71.78,71.78,0,0,0,25.11-37.09,39.16,39.16,0,0,0-5.64,3.66,39.44,39.44,0,0,0-8.8-25c0-.14-1.14-6.19-1.2-6.54,2.17-1.59,10.45-4.7,21.81,2.89a44.87,44.87,0,0,1,19.15,28.44,65.12,65.12,0,0,0,2.37-15.51A51.75,51.75,0,0,0,141.44,33.39ZM84.37,46.8l5.87,2.67V58a7.37,7.37,0,0,1-4.79,1.61,7.27,7.27,0,0,1-6.17-3.68A34,34,0,0,1,84.37,46.8Zm23.22,20.93A31.54,31.54,0,0,1,105.14,81a33.18,33.18,0,0,1-12.81,2.76h0A33.18,33.18,0,0,1,79.51,81a31.54,31.54,0,0,1-2.45-13.28A32.41,32.41,0,0,1,77.29,64a23.25,23.25,0,0,0,15,5.53h0a23.25,23.25,0,0,0,15-5.53A32.41,32.41,0,0,1,107.59,67.73Zm-2.22-11.82a7.27,7.27,0,0,1-6.17,3.68A7.37,7.37,0,0,1,94.41,58V49.47l5.87-2.67A34,34,0,0,1,105.37,55.91Z"/><path class="cls-1" d="M124.27,45.17c-.21,33.45-20.92,53.46-30,60.39,15.8-.62,34.3-8.47,45.43-29.38A42.35,42.35,0,0,0,124.27,45.17Z"/><path class="cls-1" d="M104.6,17.59a49.36,49.36,0,0,1,32.48,7.21,52.18,52.18,0,0,0-22-19.66,54.21,54.21,0,0,0-10.48,5.29Z"/><path class="cls-1" d="M15.21,141.56a7,7,0,0,0-2.47-4,7,7,0,0,0-4.33-12.4H0v3.22H2.18v13.21H0v3.23H5.92v-5.58H7.83a3.86,3.86,0,0,1,2.95,1.38c1.12,1.34,1.05,3.33,1.11,4.2h5.49v-3.23ZM5.92,128.35H7.83a3.82,3.82,0,1,1,0,7.63H5.92C5.92,133.4,5.91,130.46,5.92,128.35Z"/><polygon class="cls-1" points="31.31 141.56 27.24 141.56 27.24 136.65 32.76 136.65 32.76 133.31 27.24 133.31 27.24 128.35 31.26 128.35 31.26 129.99 34.75 129.99 34.75 125.13 21.32 125.13 21.32 128.35 23.55 128.35 23.55 141.55 21.32 141.55 21.32 144.79 34.8 144.79 34.8 139.56 31.31 139.56 31.31 141.56"/><polygon class="cls-1" points="72.62 141.56 68.53 141.56 68.53 128.35 70.86 128.35 70.86 125.13 62.61 125.13 62.61 128.35 64.83 128.35 64.83 141.56 62.61 141.56 62.61 144.79 76.11 144.79 76.11 139.56 72.62 139.56 72.62 141.56"/><polygon class="cls-1" points="115.97 141.56 111.87 141.56 111.87 128.35 114.2 128.35 114.2 125.13 105.95 125.13 105.95 128.35 108.18 128.35 108.18 141.56 105.95 141.56 105.95 144.79 119.46 144.79 119.46 139.56 115.97 139.56 115.97 141.56"/><polygon class="cls-1" points="157.62 141.56 151.54 141.56 160.9 127.58 160.95 127.5 160.95 125.13 147.06 125.13 147.06 129.84 150.55 129.84 150.55 128.35 155.98 128.35 146.57 142.26 146.57 144.79 161.1 144.79 161.1 139.73 157.62 139.73 157.62 141.56"/><path class="cls-1" d="M95.59,125.13H87.2v3.22h2.19v13.21H87.2v3.23h8.58v-3.23H93.12v-2.41h2.56a6.9,6.9,0,0,0,3.23-.81,7,7,0,0,0,2.06-1.7,6.87,6.87,0,0,0,1-1.72,7.5,7.5,0,0,0,.55-2.82A7,7,0,0,0,95.59,125.13ZM95,136H93.12v-7.62H95a4.11,4.11,0,0,1,.77.08,4.83,4.83,0,0,1,.71.22,3.92,3.92,0,0,1,.64.34,5,5,0,0,1,.57.46,3.75,3.75,0,0,1,1.12,2.65A3.84,3.84,0,0,1,95,136Z"/><path class="cls-1" d="M140.62,141.56l-6-16.43H131l-6,16.43h-2v3.23h4.75l1.33-3.73h7.47l1.34,3.73h4.75v-3.23Zm-10.42-3.67,2.59-7.42h0l2.59,7.42Z"/><path class="cls-1" d="M182.64,141.56l-6-16.43H173l-6,16.43h-2v3.23h4.75l1.33-3.73h7.47l1.33,3.73h4.75v-3.23Zm-10.43-3.67,2.6-7.42h0l2.59,7.42Z"/><path class="cls-1" d="M56.53,141.56l-6-16.43H46.88l-6,16.43h-2v3.23h4.75L45,141.06h7.47l1.33,3.73h4.75v-3.23Zm-10.42-3.67,2.59-7.42h0l2.59,7.42Z"/></g></g></svg>