<svg xmlns="http://www.w3.org/2000/svg" viewBox="0 0 105.75 105.43"><defs><style>.cls-1{fill:#fff;}</style></defs><title>Recurso 2</title><g id="Capa_2" data-name="Capa 2"><g id="Layer_1" data-name="Layer 1"><path class="cls-1" d="M52.87,8h0l-5.76,7.55c-.75-.69-1.55-1.39-2.33-2V18.3a51.19,51.19,0,0,1,8.09,2.46h0A51.64,51.64,0,0,1,61,18.3c0-.21,0-4.63,0-4.77-.77.63-1.58,1.33-2.32,2L52.87,8Z"/><path class="cls-1" d="M40.58,17.61V10.44a55,55,0,0,0-10.5-5.3,52.35,52.35,0,0,0-22,19.68A49.46,49.46,0,0,1,40.58,17.61Z"/><path class="cls-1" d="M46.45,9.49l6.42-8.4,6.43,8.4a54.8,54.8,0,0,1,10.85-6.6A52.84,52.84,0,0,0,52.87,0h0A52.83,52.83,0,0,0,35.6,2.89,55.09,55.09,0,0,1,46.45,9.49Z"/><path class="cls-1" d="M22.44,35.22A35.61,35.61,0,0,1,37,21.5,45.41,45.41,0,0,0,3.69,33.43,51.81,51.81,0,0,0,0,52.82,51.25,51.25,0,0,0,3,70.45C4.7,50,18.16,38.44,22.44,35.22Z"/><path class="cls-1" d="M45.84,60.56a7.82,7.82,0,0,0,4.93-1.73V49.52L44.9,46.85a33.88,33.88,0,0,0-5.53,10.33A7.87,7.87,0,0,0,45.84,60.56Z"/><path class="cls-1" d="M30.52,35.05a13,13,0,0,0-7.15,8,31.28,31.28,0,0,0,.22,20,36.82,36.82,0,0,1,9.77,5.5,39.57,39.57,0,0,1,8.81-25c0-.14,1.25-6.63,1.31-7A13.27,13.27,0,0,0,30.52,35.05Z"/><path class="cls-1" d="M23.41,75.16c-2.7-6.23-7.86-18.78-4.69-30.82-.07.07-.13.15-.21.24A45.29,45.29,0,0,0,7.28,79.68a52.77,52.77,0,0,0,39.81,25.75A80,80,0,0,1,23.41,75.16Z"/><path class="cls-1" d="M65.17,17.61a49.46,49.46,0,0,1,32.52,7.21,52.35,52.35,0,0,0-22-19.68,54.73,54.73,0,0,0-10.5,5.3Z"/><path class="cls-1" d="M102.05,33.43A45.39,45.39,0,0,0,68.76,21.5,35.65,35.65,0,0,1,83.3,35.22c4.29,3.22,17.75,14.8,19.46,35.23a53,53,0,0,0-.71-37Z"/><path class="cls-1" d="M58.93,41.58,57.7,35a17.3,17.3,0,0,1,16.4-4.69,31,31,0,0,0-8.58-5.72c-4.25-1.95-7.74-1.5-12.65.77-4.9-2.27-8.39-2.72-12.64-.77a31,31,0,0,0-8.58,5.72A17.31,17.31,0,0,1,48.05,35l-1.24,6.61"/><path class="cls-1" d="M80.55,68.34a35.65,35.65,0,0,0-8.69,6.19,37.77,37.77,0,0,1-4.17,12.25,35.1,35.1,0,0,1-29.63,0,37.78,37.78,0,0,1-4.18-12.25,35.28,35.28,0,0,0-8.69-6.19,76.4,76.4,0,0,0,27.68,36.13v0A76.32,76.32,0,0,0,80.55,68.34Z"/><path class="cls-1" d="M52.87,85.86h0A30.08,30.08,0,0,0,64.4,83.64,32.1,32.1,0,0,0,68.17,67.8a32.73,32.73,0,0,0-.26-3.72,23.14,23.14,0,0,1-30.07,0,32.73,32.73,0,0,0-.26,3.72,32.1,32.1,0,0,0,3.77,15.84,30,30,0,0,0,11.52,2.22Z"/><path class="cls-1" d="M66.38,57.18a34.1,34.1,0,0,0-5.53-10.33L55,49.52v9.31a7.9,7.9,0,0,0,11.41-1.65Z"/><path class="cls-1" d="M82.16,63.06a31.34,31.34,0,0,0,.22-20,13,13,0,0,0-7.15-8,13.29,13.29,0,0,0-13,1.51c.07.34,1.29,6.83,1.31,7a39.45,39.45,0,0,1,8.81,25A37,37,0,0,1,82.16,63.06Z"/><path class="cls-1" d="M87,44.34c3.16,12-2,24.59-4.7,30.82a80,80,0,0,1-23.67,30.27A52.77,52.77,0,0,0,98.47,79.68a45.29,45.29,0,0,0-11.24-35.1Z"/></g></g></svg>