<svg xmlns="http://www.w3.org/2000/svg" viewBox="0 0 205.3 79.94"><defs><style>.cls-1{fill:#fff;}</style></defs><title>Recurso 2</title><g id="Capa_2" data-name="Capa 2"><g id="Layer_1" data-name="Layer 1"><path class="cls-1" d="M192.77,22.48h-15.1v5.8h3.93V52.05h-3.93v5.81h15.44V52.05h-4.79V47.72h4.61a12.47,12.47,0,0,0,11.38-7.62,13.43,13.43,0,0,0,1-5.07A12.55,12.55,0,0,0,192.77,22.48ZM27.37,52.05a12.58,12.58,0,0,0-4.46-7.25,12.53,12.53,0,0,0-7.78-22.32H0v5.8H3.93V52.05H0v5.81H10.65v-10h3.43a6.94,6.94,0,0,1,5.31,2.49c2,2.41,1.9,6,2,7.54h9.88V52.05ZM10.64,28.28h3.44a6.87,6.87,0,1,1,0,13.73H10.65C10.65,37.37,10.64,32.07,10.64,28.28ZM191.77,42h-3.45c0-4.61,0-10,0-13.72h3.44a7.21,7.21,0,0,1,1.38.16,6.07,6.07,0,0,1,1.28.39,6.86,6.86,0,0,1,1.17.61,7.71,7.71,0,0,1,1,.82,6.75,6.75,0,0,1,2,4.77A6.93,6.93,0,0,1,191.77,42Z"/><path class="cls-1" d="M102.72,6.07h0l-4.37,5.72c-.57-.53-1.18-1-1.76-1.53,0,.1,0,3.45,0,3.62a38.21,38.21,0,0,1,6.14,1.86h0a38.52,38.52,0,0,1,6.14-1.86c0-.17,0-3.52,0-3.62-.58.48-1.19,1-1.76,1.53l-4.37-5.72Z"/><path class="cls-1" d="M93.4,13.35V7.92a41,41,0,0,0-8-4,39.72,39.72,0,0,0-16.7,14.92A37.48,37.48,0,0,1,93.4,13.35Z"/><path class="cls-1" d="M97.85,7.2,102.72.83s4.84,6.32,4.87,6.37a40.9,40.9,0,0,1,8.23-5A39.93,39.93,0,0,0,102.72,0h0a40,40,0,0,0-13.1,2.19A40.9,40.9,0,0,1,97.85,7.2Z"/><path class="cls-1" d="M79.65,26.7a27,27,0,0,1,11-10.4,34.45,34.45,0,0,0-25.25,9.05,40.21,40.21,0,0,0-.53,28.06A37.88,37.88,0,0,1,79.65,26.7Z"/><path class="cls-1" d="M97.39,45.92a6,6,0,0,0,3.74-1.31V37.55l-4.46-2a25.8,25.8,0,0,0-4.19,7.83A6,6,0,0,0,97.39,45.92Z"/><path class="cls-1" d="M85.77,26.58a9.82,9.82,0,0,0-5.42,6.09,23.64,23.64,0,0,0,.17,15.14A28.28,28.28,0,0,1,87.93,52a30,30,0,0,1,6.68-19l1-5.28A10,10,0,0,0,85.77,26.58Z"/><path class="cls-1" d="M80.38,57c-2-4.73-5.95-14.25-3.55-23.38l-.16.19a34.32,34.32,0,0,0-8.52,26.61A40,40,0,0,0,98.34,79.94,60.68,60.68,0,0,1,80.38,57Z"/><path class="cls-1" d="M112,13.35a37.48,37.48,0,0,1,24.66,5.47A39.72,39.72,0,0,0,120,3.9a41.29,41.29,0,0,0-8,4Z"/><path class="cls-1" d="M140,25.35a34.45,34.45,0,0,0-25.25-9,27,27,0,0,1,11,10.4,37.84,37.84,0,0,1,14.75,26.71A40.21,40.21,0,0,0,140,25.35Z"/><path class="cls-1" d="M107.32,31.53l-.94-5A13.12,13.12,0,0,1,118.81,23a23.47,23.47,0,0,0-6.5-4.34c-3.23-1.47-5.87-1.14-9.59.58-3.72-1.72-6.36-2.05-9.59-.58A23.47,23.47,0,0,0,86.63,23a13.12,13.12,0,0,1,12.43,3.55l-.93,5"/><path class="cls-1" d="M123.71,51.82a26.78,26.78,0,0,0-6.59,4.69A28.61,28.61,0,0,1,114,65.8a26.67,26.67,0,0,1-22.46,0,28.61,28.61,0,0,1-3.17-9.29,26.6,26.6,0,0,0-6.59-4.69,57.94,57.94,0,0,0,21,27.39v0A57.94,57.94,0,0,0,123.71,51.82Z"/><path class="cls-1" d="M102.72,65.1h0a23,23,0,0,0,8.74-1.68,24.38,24.38,0,0,0,2.86-12,24,24,0,0,0-.2-2.83,17.54,17.54,0,0,1-22.8,0,24,24,0,0,0-.2,2.83,24.38,24.38,0,0,0,2.86,12,23,23,0,0,0,8.74,1.68Z"/><path class="cls-1" d="M113,43.35a25.8,25.8,0,0,0-4.19-7.83l-4.46,2v7.06A6,6,0,0,0,113,43.35Z"/><path class="cls-1" d="M124.92,47.81a23.64,23.64,0,0,0,.17-15.14,9.82,9.82,0,0,0-5.42-6.09,10,10,0,0,0-9.83,1.14l1,5.28a30,30,0,0,1,6.68,19A28.28,28.28,0,0,1,124.92,47.81Z"/><path class="cls-1" d="M128.62,33.61c2.4,9.13-1.52,18.65-3.56,23.38a60.68,60.68,0,0,1-18,22.95,40,40,0,0,0,30.19-19.53,34.32,34.32,0,0,0-8.52-26.61Z"/></g></g></svg>